<svg id="visual" viewBox="0 0 1920 320" width="1920" height="320" xmlns="http://www.w3.org/2000/svg" xmlns:xlink="http://www.w3.org/1999/xlink" version="1.1"><rect x="0" y="0" width="1920" height="320" fill="#f2f4f8"></rect><path d="M0 166L274 144L549 95L823 169L1097 157L1371 127L1646 171L1920 79L1920 321L1646 321L1371 321L1097 321L823 321L549 321L274 321L0 321Z" fill="#d8dee9"></path><path d="M0 159L274 195L549 146L823 200L1097 176L1371 125L1646 150L1920 177L1920 321L1646 321L1371 321L1097 321L823 321L549 321L274 321L0 321Z" fill="#dee3ec"></path><path d="M0 173L274 194L549 199L823 176L1097 217L1371 173L1646 186L1920 200L1920 321L1646 321L1371 321L1097 321L823 321L549 321L274 321L0 321Z" fill="#e5e9f0"></path><path d="M0 254L274 254L549 254L823 256L1097 232L1371 245L1646 207L1920 219L1920 321L1646 321L1371 321L1097 321L823 321L549 321L274 321L0 321Z" fill="#eceef4"></path><path d="M0 289L274 270L549 251L823 251L1097 289L1371 270L1646 288L1920 263L1920 321L1646 321L1371 321L1097 321L823 321L549 321L274 321L0 321Z" fill="#f2f4f8"></path></svg>